<svg width="102" height="82" viewBox="0 0 102 82" fill="none" xmlns="http://www.w3.org/2000/svg">
<path fill-rule="evenodd" clip-rule="evenodd" d="M52.1475 22.6131L99.2388 35.3473C100.633 35.7256 102 34.6773 102 33.2416V20.6168C102 18.6114 100.725 16.8248 98.8182 16.1685L52.4263 0.23928C51.5029 -0.0797599 50.5017 -0.0797599 49.5737 0.23928C42.7164 2.59561 13.0197 12.7958 3.17721 16.173C1.27546 16.8293 0 18.6114 0 20.6168V33.2371C0 34.6773 1.37146 35.721 2.7612 35.3427L49.8525 22.6085C50.6068 22.408 51.3977 22.408 52.1475 22.6131ZM29.2807 35.8714V78.8643C29.2807 80.5962 30.6887 82 32.4259 82H69.5787C71.3159 82 72.7239 80.5962 72.7239 78.8643V35.7438C72.7239 34.8049 72.093 33.98 71.1833 33.7339L52.0057 28.488C51.3474 28.3056 50.6526 28.3056 49.9943 28.488L30.9401 33.6974C29.9572 33.9663 29.2807 34.8551 29.2807 35.8714Z" fill="white"/>
</svg>
