<svg width="64" height="45" viewBox="0 0 64 45" fill="none" xmlns="http://www.w3.org/2000/svg">
<path fill-rule="evenodd" clip-rule="evenodd" d="M27.4 18L32 13.6486L36.6 18L38 16.6757L32 11L26 16.6757L27.4 18Z" fill="black"/>
<path d="M20.5371 30.8438C20.5371 30.6445 20.5059 30.4688 20.4434 30.3164C20.3848 30.1602 20.2793 30.0195 20.127 29.8945C19.9785 29.7695 19.7715 29.6504 19.5059 29.5371C19.2441 29.4238 18.9121 29.3086 18.5098 29.1914C18.0879 29.0664 17.707 28.9277 17.3672 28.7754C17.0273 28.6191 16.7363 28.4414 16.4941 28.2422C16.252 28.043 16.0664 27.8145 15.9375 27.5566C15.8086 27.2988 15.7441 27.0039 15.7441 26.6719C15.7441 26.3398 15.8125 26.0332 15.9492 25.752C16.0859 25.4707 16.2812 25.2266 16.5352 25.0195C16.793 24.8086 17.0996 24.6445 17.4551 24.5273C17.8105 24.4102 18.207 24.3516 18.6445 24.3516C19.2852 24.3516 19.8281 24.4746 20.2734 24.7207C20.7227 24.9629 21.0645 25.2812 21.2988 25.6758C21.5332 26.0664 21.6504 26.4844 21.6504 26.9297H20.5254C20.5254 26.6094 20.457 26.3262 20.3203 26.0801C20.1836 25.8301 19.9766 25.6348 19.6992 25.4941C19.4219 25.3496 19.0703 25.2773 18.6445 25.2773C18.2422 25.2773 17.9102 25.3379 17.6484 25.459C17.3867 25.5801 17.1914 25.7441 17.0625 25.9512C16.9375 26.1582 16.875 26.3945 16.875 26.6602C16.875 26.8398 16.9121 27.0039 16.9863 27.1523C17.0645 27.2969 17.1836 27.4316 17.3438 27.5566C17.5078 27.6816 17.7148 27.7969 17.9648 27.9023C18.2188 28.0078 18.5215 28.1094 18.873 28.207C19.3574 28.3438 19.7754 28.4961 20.127 28.6641C20.4785 28.832 20.7676 29.0215 20.9941 29.2324C21.2246 29.4395 21.3945 29.6758 21.5039 29.9414C21.6172 30.2031 21.6738 30.5 21.6738 30.832C21.6738 31.1797 21.6035 31.4941 21.4629 31.7754C21.3223 32.0566 21.1211 32.2969 20.8594 32.4961C20.5977 32.6953 20.2832 32.8496 19.916 32.959C19.5527 33.0645 19.1465 33.1172 18.6973 33.1172C18.3027 33.1172 17.9141 33.0625 17.5312 32.9531C17.1523 32.8438 16.8066 32.6797 16.4941 32.4609C16.1855 32.2422 15.9375 31.9727 15.75 31.6523C15.5664 31.3281 15.4746 30.9531 15.4746 30.5273H16.5996C16.5996 30.8203 16.6562 31.0723 16.7695 31.2832C16.8828 31.4902 17.0371 31.6621 17.2324 31.7988C17.4316 31.9355 17.6562 32.0371 17.9062 32.1035C18.1602 32.166 18.4238 32.1973 18.6973 32.1973C19.0918 32.1973 19.4258 32.1426 19.6992 32.0332C19.9727 31.9238 20.1797 31.7676 20.3203 31.5645C20.4648 31.3613 20.5371 31.1211 20.5371 30.8438ZM27.9961 24.4688H29.1211V30.2402C29.1211 30.8809 28.9785 31.4141 28.6934 31.8398C28.4082 32.2656 28.0293 32.5859 27.5566 32.8008C27.0879 33.0117 26.5781 33.1172 26.0273 33.1172C25.4492 33.1172 24.9258 33.0117 24.457 32.8008C23.9922 32.5859 23.623 32.2656 23.3496 31.8398C23.0801 31.4141 22.9453 30.8809 22.9453 30.2402V24.4688H24.0645V30.2402C24.0645 30.6855 24.1465 31.0527 24.3105 31.3418C24.4746 31.6309 24.7031 31.8457 24.9961 31.9863C25.293 32.127 25.6367 32.1973 26.0273 32.1973C26.4219 32.1973 26.7656 32.127 27.0586 31.9863C27.3555 31.8457 27.5859 31.6309 27.75 31.3418C27.9141 31.0527 27.9961 30.6855 27.9961 30.2402V24.4688ZM33.9375 29.0098H31.7754L31.7637 28.1016H33.7266C34.0508 28.1016 34.334 28.0469 34.5762 27.9375C34.8184 27.8281 35.0059 27.6719 35.1387 27.4688C35.2754 27.2617 35.3438 27.0156 35.3438 26.7305C35.3438 26.418 35.2832 26.1641 35.1621 25.9688C35.0449 25.7695 34.8633 25.625 34.6172 25.5352C34.375 25.4414 34.0664 25.3945 33.6914 25.3945H32.0273V33H30.8965V24.4688H33.6914C34.1289 24.4688 34.5195 24.5137 34.8633 24.6035C35.207 24.6895 35.498 24.8262 35.7363 25.0137C35.9785 25.1973 36.1621 25.4316 36.2871 25.7168C36.4121 26.002 36.4746 26.3438 36.4746 26.7422C36.4746 27.0938 36.3848 27.4121 36.2051 27.6973C36.0254 27.9785 35.7754 28.209 35.4551 28.3887C35.1387 28.5684 34.7676 28.6836 34.3418 28.7344L33.9375 29.0098ZM33.8848 33H31.3301L31.9688 32.0801H33.8848C34.2441 32.0801 34.5488 32.0176 34.7988 31.8926C35.0527 31.7676 35.2461 31.5918 35.3789 31.3652C35.5117 31.1348 35.5781 30.8633 35.5781 30.5508C35.5781 30.2344 35.5215 29.9609 35.4082 29.7305C35.2949 29.5 35.1172 29.3223 34.875 29.1973C34.6328 29.0723 34.3203 29.0098 33.9375 29.0098H32.3262L32.3379 28.1016H34.541L34.7812 28.4297C35.1914 28.4648 35.5391 28.582 35.8242 28.7812C36.1094 28.9766 36.3262 29.2266 36.4746 29.5312C36.627 29.8359 36.7031 30.1719 36.7031 30.5391C36.7031 31.0703 36.5859 31.5195 36.3516 31.8867C36.1211 32.25 35.7949 32.5273 35.373 32.7188C34.9512 32.9062 34.4551 33 33.8848 33ZM39.5859 24.4688V33H38.4551V24.4688H39.5859ZM41.6426 24.4688H44.4668C45.1074 24.4688 45.6484 24.5664 46.0898 24.7617C46.5352 24.957 46.873 25.2461 47.1035 25.6289C47.3379 26.0078 47.4551 26.4746 47.4551 27.0293C47.4551 27.4199 47.375 27.7773 47.2148 28.1016C47.0586 28.4219 46.832 28.6953 46.5352 28.9219C46.2422 29.1445 45.8906 29.3105 45.4805 29.4199L45.1641 29.543H42.5098L42.498 28.623H44.502C44.9082 28.623 45.2461 28.5527 45.5156 28.4121C45.7852 28.2676 45.9883 28.0742 46.125 27.832C46.2617 27.5898 46.3301 27.3223 46.3301 27.0293C46.3301 26.7012 46.2656 26.4141 46.1367 26.168C46.0078 25.9219 45.8047 25.7324 45.5273 25.5996C45.2539 25.4629 44.9004 25.3945 44.4668 25.3945H42.7734V33H41.6426V24.4688ZM46.6289 33L44.5547 29.1328L45.7324 29.127L47.8359 32.9297V33H46.6289Z" fill="black"/>
<rect x="0.5" y="0.5" width="63" height="44" rx="9.5" stroke="black"/>
</svg>
