<svg width="124" height="119" viewBox="0 0 124 119" fill="none" xmlns="http://www.w3.org/2000/svg">
<g clip-path="url(#clip0_1039_51165)">
<rect width="123.71" height="119" transform="translate(0.245605)" fill="white"/>
<path d="M30.0432 99.3022C27.2816 99.3024 25.0428 97.0638 25.0428 94.3022V0.595133C25.0428 0.26645 24.7763 0 24.4477 0V0H5.24561C2.48419 0 0.245605 2.23858 0.245605 5V114C0.245605 116.761 2.48418 119 5.24561 119H89.4859C92.2474 119 94.4859 116.761 94.4859 114V104.298C94.4859 101.536 92.2471 99.2973 89.4855 99.2975L30.0432 99.3022Z" fill="black"/>
<path fill-rule="evenodd" clip-rule="evenodd" d="M30.0024 29.8447C30.0024 27.0833 32.241 24.8447 35.0024 24.8447H89.7451C92.5066 24.8447 94.7451 27.0833 94.7451 29.8447V34.8079C94.7451 37.5693 92.5066 39.8079 89.7452 39.8079H50.0516C47.2902 39.8079 45.0516 42.0465 45.0516 44.8079V74.2468C45.0516 77.0082 47.2902 79.2468 50.0516 79.2468H89.398C92.1594 79.2468 94.398 81.4853 94.398 84.2468V89.243C94.398 92.0044 92.1594 94.243 89.398 94.243H35.0024C32.241 94.243 30.0024 92.0044 30.0024 89.243V39.8079V39.7528V29.8447Z" fill="black"/>
<path d="M35.0024 0C32.241 0 30.0024 2.23858 30.0024 5V14.6974C30.0024 17.4588 32.241 19.6974 35.0024 19.6974H94.7101C97.4715 19.6974 99.7101 21.936 99.7101 24.6974V98.8617V114C99.7101 116.761 101.949 119 104.71 119H118.956C121.718 119 123.956 116.761 123.956 114V5C123.956 2.23858 121.718 0 118.956 0H35.0024Z" fill="black"/>
</g>
<defs>
<clipPath id="clip0_1039_51165">
<rect width="200" height="200" fill="white" transform="translate(0.245605)"/>
</clipPath>
</defs>
</svg>
